# xmcd
#
# Track frame offsets: 
#        150
#        20122
#        63555
#        91075
#        116460
#        145090
#        167095
#        184690
#        222480
#        244127
#        275537
#
# Disc length: 3956 seconds
#
# Revision: 2
# Processed by: cddbd v1.5.2PL0 Copyright (c) Steve Scherf et al.
# Submitted via: ExactAudioCopy v0.99pb5
#
DISCID=9f0f720b
DTITLE=Joachim Kuhn - Universal Time
DYEAR=2002
DGENRE=Jazz
TTITLE0=Still in Thalys
TTITLE1=The Night
TTITLE2=Thought About My Mother
TTITLE3=Begegnungen
TTITLE4=August in Paris
TTITLE5=Concorde
TTITLE6=Monroe
TTITLE7=Phrasen
TTITLE8=The Freedom is There
TTITLE9=Three Ways to One
TTITLE10=Round Trip
EXTD=YEAR: 2002
EXTT0=
EXTT1=
EXTT2=
EXTT3=
EXTT4=
EXTT5=
EXTT6=
EXTT7=
EXTT8=
EXTT9=
EXTT10=
PLAYORDER=
